<svg xmlns="http://www.w3.org/2000/svg" xmlns:xlink="http://www.w3.org/1999/xlink" viewBox="0 0 418.24 459.2"><defs><style>.cls-1,.cls-3{fill:none;}.cls-1,.cls-3,.cls-4,.cls-5,.cls-6,.cls-7,.cls-8,.cls-9{stroke:#1b2b3f;stroke-linecap:round;stroke-linejoin:round;}.cls-1,.cls-4{stroke-width:20.27px;}.cls-2{fill:url(#radial-gradient);}.cls-3{stroke-width:20.27px;}.cls-4,.cls-5,.cls-7{fill:#fff;}.cls-5{stroke-width:18.24px;}.cls-6,.cls-7,.cls-8,.cls-9{stroke-width:18.24px;}.cls-6{fill:url(#radial-gradient-2);}.cls-8{fill:url(#radial-gradient-3);}.cls-9{fill:url(#radial-gradient-4);}</style><radialGradient id="radial-gradient" cx="268.63" cy="266.37" r="76.07" gradientTransform="translate(-106.66 -76.4) scale(1.18 1.15)" gradientUnits="userSpaceOnUse"><stop offset="0" stop-color="#ffe920"/><stop offset="1" stop-color="#fdc800"/></radialGradient><radialGradient id="radial-gradient-2" cx="1429.12" cy="1806.86" r="31.7" gradientTransform="translate(2005.46 -1193.4) rotate(90) scale(1.06 1.09)" xlink:href="#radial-gradient"/><radialGradient id="radial-gradient-3" cx="1420.27" cy="1510.6" r="31.65" gradientTransform="translate(2017.28 -1186.15) rotate(90) scale(1.06 1.09)" xlink:href="#radial-gradient"/><radialGradient id="radial-gradient-4" cx="1016.29" cy="1556.83" r="30.86" gradientTransform="translate(1945.24 -1064.76) rotate(90) scale(1.09 1.12)" xlink:href="#radial-gradient"/></defs><g id="Layer_2" data-name="Layer 2"><g id="Layer_1-2" data-name="Layer 1"><polygon class="cls-1" points="374.7 323.02 374.7 136.18 209.12 42.75 43.54 136.18 43.54 323.02 209.12 416.44 374.7 323.02"/><polygon class="cls-2" points="291.91 276.31 291.91 182.89 209.12 136.18 126.33 182.89 126.33 276.31 209.12 323.02 291.91 276.31"/><polygon class="cls-3" points="291.91 276.31 291.91 182.89 209.12 136.18 126.33 182.89 126.33 276.31 209.12 323.02 291.91 276.31"/><line class="cls-4" x1="43.54" y1="136.18" x2="209.12" y2="229.6"/><line class="cls-4" x1="209.12" y1="416.44" x2="209.12" y2="229.6"/><line class="cls-4" x1="374.7" y1="136.18" x2="209.12" y2="229.6"/><ellipse class="cls-5" cx="43.54" cy="136.18" rx="34.42" ry="33.63"/><ellipse class="cls-6" cx="43.54" cy="323.02" rx="34.42" ry="33.63"/><ellipse class="cls-7" cx="209.12" cy="416.44" rx="34.42" ry="33.63"/><ellipse class="cls-8" cx="374.7" cy="323.02" rx="34.42" ry="33.63"/><ellipse class="cls-7" cx="374.7" cy="136.18" rx="34.42" ry="33.63"/><ellipse class="cls-9" cx="209.12" cy="42.75" rx="34.42" ry="33.63"/></g></g></svg>